<svg width="30" height="31" viewBox="0 0 30 31" fill="none" xmlns="http://www.w3.org/2000/svg">
<path fill-rule="evenodd" clip-rule="evenodd" d="M14.0479 3.9986C13.2803 4.10004 12.3325 4.31775 10.9842 4.62889L9.44902 4.98317C8.31025 5.24596 7.52602 5.42814 6.92702 5.63373C6.34874 5.8322 6.02159 6.02785 5.77472 6.27472C5.52785 6.52159 5.3322 6.84874 5.13372 7.42702C4.92814 8.02602 4.74596 8.81025 4.48317 9.94902L4.12889 11.4843C3.81775 12.8325 3.60004 13.7803 3.4986 14.5479C3.39978 15.2956 3.42256 15.8016 3.55447 16.2615C3.68638 16.7215 3.93521 17.1626 4.41532 17.7443C4.90814 18.3414 5.59509 19.0298 6.57352 20.0082L8.86057 22.2952C10.5599 23.9946 11.7692 25.201 12.8088 25.9942C13.8267 26.7709 14.5711 27.0625 15.3279 27.0625C16.0847 27.0625 16.8291 26.7709 17.847 25.9942C18.8866 25.201 20.0959 23.9946 21.7952 22.2952C23.4946 20.5959 24.701 19.3867 25.4942 18.347C26.2709 17.3291 26.5625 16.5847 26.5625 15.8279C26.5625 15.0711 26.2709 14.3267 25.4942 13.3088C24.701 12.2692 23.4946 11.0599 21.7952 9.36057L19.5082 7.07352C18.5298 6.09509 17.8414 5.40814 17.2443 4.91532C16.6626 4.43521 16.2215 4.18638 15.7615 4.05447C15.3016 3.92256 14.7956 3.89978 14.0479 3.9986ZM13.8022 2.13976C14.6989 2.02127 15.4851 2.02461 16.2784 2.25213C17.0717 2.47965 17.7402 2.89352 18.4378 3.46923C19.1121 4.02575 19.8631 4.77673 20.8012 5.71491L23.171 8.08468C24.8093 9.72294 26.1064 11.02 26.9849 12.1714C27.8888 13.3562 28.4375 14.4963 28.4375 15.8279C28.4375 17.1595 27.8888 18.2996 26.9849 19.4844C26.1063 20.6358 24.8093 21.9329 23.171 23.5711L23.0711 23.671C21.4329 25.3093 20.1358 26.6064 18.9844 27.4849C17.7996 28.3888 16.6595 28.9375 15.3279 28.9375C13.9963 28.9375 12.8562 28.3888 11.6714 27.4849C10.52 26.6063 9.22291 25.3093 7.58464 23.671L5.21494 21.3013C4.27675 20.3631 3.52576 19.6121 2.96923 18.9378C2.39352 18.2402 1.97965 17.5717 1.75213 16.7784C1.52461 15.9851 1.52127 15.1989 1.63976 14.3022C1.75431 13.4354 1.99313 12.4006 2.29149 11.1078L2.66732 9.47918C2.91627 8.40029 3.11929 7.52049 3.36027 6.81836C3.61194 6.08507 3.92892 5.46888 4.4489 4.9489C4.96888 4.42892 5.58507 4.11194 6.31836 3.86027C7.02049 3.61929 7.90029 3.41627 8.97919 3.16731L10.6078 2.79149C11.9006 2.49313 12.9354 2.25431 13.8022 2.13976ZM11.8636 10.494C11.2535 9.88383 10.2641 9.88383 9.65394 10.494C9.04374 11.1042 9.04374 12.0935 9.65394 12.7037C10.2641 13.3139 11.2535 13.3139 11.8636 12.7037C12.4738 12.0935 12.4738 11.1042 11.8636 10.494ZM8.32811 9.1682C9.67054 7.82577 11.847 7.82577 13.1895 9.1682C14.5319 10.5106 14.5319 12.6871 13.1895 14.0296C11.847 15.372 9.67054 15.372 8.32811 14.0296C6.98568 12.6871 6.98568 10.5106 8.32811 9.1682ZM16.2411 15.6337C16.02 15.6316 15.7294 15.7309 15.4801 15.9801C14.9957 16.4645 15.1231 16.9489 15.2591 17.085C15.3952 17.221 15.8796 17.3484 16.364 16.864C17.344 15.8839 19.0361 15.5587 20.1205 16.643C20.9617 17.4842 20.9546 18.6912 20.4515 19.6477C20.7029 20.0129 20.6662 20.5167 20.3415 20.8415C20.0178 21.1651 19.5164 21.2027 19.1515 20.9541C18.5804 21.2576 17.9307 21.3713 17.3112 21.244C16.8041 21.1398 16.4774 20.6442 16.5817 20.137C16.6859 19.6298 17.1815 19.3032 17.6887 19.4074C17.9101 19.4529 18.2671 19.3803 18.5737 19.0737C19.0581 18.5893 18.9307 18.1049 18.7947 17.9688C18.6586 17.8328 18.1742 17.7054 17.6898 18.1898C16.7098 19.1699 15.0177 19.4951 13.9333 18.4108C13.0921 17.5696 13.0992 16.3626 13.6023 15.4061C13.3509 15.0409 13.3876 14.5371 13.7123 14.2123C14.0359 13.8888 14.5372 13.8512 14.9021 14.0996C15.3269 13.8738 15.7937 13.7544 16.2588 13.7588C16.7765 13.7637 17.1923 14.1873 17.1874 14.7051C17.1825 15.2228 16.7589 15.6386 16.2411 15.6337Z" fill="#F3EA28"/>
</svg>
